Coordinates
version=1
nRows=14
nColumns=40
inDegrees=yes

Units are S.I. units (second, meters, Newtons, ...)
Angles are in degrees.

endheader
time	pelvis_tilt	pelvis_list	pelvis_rotation	pelvis_tx	pelvis_ty	pelvis_tz	hip_flexion_r	hip_adduction_r	hip_rotation_r	knee_angle_r	knee_angle_r_beta	ankle_angle_r	subtalar_angle_r	mtp_angle_r	hip_flexion_l	hip_adduction_l	hip_rotation_l	knee_angle_l	knee_angle_l_beta	ankle_angle_l	subtalar_angle_l	mtp_angle_l	lumbar_extension	lumbar_bending	lumbar_rotation	arm_flex_r	arm_add_r	arm_rot_r	elbow_flex_r	pro_sup_r	wrist_flex_r	wrist_dev_r	arm_flex_l	arm_add_l	arm_rot_l	elbow_flex_l	pro_sup_l	wrist_flex_l	wrist_dev_l
     22.61000000	     -2.94007013	     -2.55857435	     -0.62281210	      1.06270012	      0.92228583	      0.42012843	     30.57890898	     -4.18870312	    -12.06463717	     18.74528829	     18.74528829	      0.85384735	      2.28416935	      7.36182716	     -3.47809837	     -2.76968196	    -12.18547289	     11.27838530	     11.27838530	     18.58678286	     -0.00833727	     -5.56028097	    -12.70203883	      4.55937389	      1.49868238	    -19.73272923	    -14.25728939	     -2.40395796	     31.78764477	     46.42400430	      0.00000000	      0.00000000	     27.99600203	    -19.26964749	     -0.90121116	     98.27165094	     47.87725268	      0.00000000	      0.00000000
     22.62157143	     -3.03261403	     -2.44756089	     -0.58064648	      1.06451133	      0.91997928	      0.42162028	     30.05577351	     -3.90260027	    -12.59855312	     17.07001703	     17.07001703	      0.98634036	      2.58971479	      8.03074834	     -4.19353699	     -2.72093561	    -12.10031320	     11.08687865	     11.08687865	     19.04951365	      0.04295318	     -5.72044414	    -12.44438784	      4.42743386	      1.58410341	    -20.98010247	    -14.04936960	     -2.23405940	     31.51308801	     46.40847347	      0.00000000	      0.00000000	     28.67907667	    -19.38875338	     -1.14402048	     99.29648804	     47.92081743	      0.00000000	      0.00000000
     22.63314286	     -3.00493243	     -2.45225531	     -0.55537169	      1.06655392	      0.91791278	      0.42333872	     29.46007471	     -3.55656975	    -13.22095669	     16.03204854	     16.03204854	      1.10734924	      2.94477883	      8.56844850	     -5.10561813	     -2.80921208	    -12.09369846	     10.80733880	     10.80733880	     19.51667373	      0.20669559	     -5.76654477	    -12.34363349	      4.42618506	      1.82800764	    -22.15529303	    -13.87466461	     -2.08985565	     31.43075059	     46.38580386	      0.00000000	      0.00000000	     29.03572220	    -19.35793207	     -1.14148380	    100.99437522	     47.96677879	      0.00000000	      0.00000000
     22.64471429	     -3.05253960	     -2.44317965	     -0.52913363	      1.06851854	      0.91573883	      0.42527491	     29.18215819	     -3.29827291	    -13.67882732	     15.86154182	     15.86154182	      1.15844514	      2.96075341	      8.54387600	     -5.80954877	     -2.93459193	    -12.09237691	     10.76733032	     10.76733032	     20.07481712	      0.36092287	     -5.70315522	    -12.19561581	      4.38304776	      1.92285263	    -23.12699343	    -13.72547880	     -2.00998856	     31.56698381	     46.35836105	      0.00000000	      0.00000000	     29.10353956	    -19.54254620	     -1.16426771	    102.83133997	     48.01954314	      0.00000000	      0.00000000
     22.65628571	     -3.17544144	     -2.46411217	     -0.49348713	      1.07047610	      0.91354872	      0.42742774	     29.08828239	     -3.03877245	    -13.88875205	     16.21482697	     16.21482697	      0.93950239	      2.53964820	      7.61243836	     -6.26324071	     -3.16270006	    -12.12086851	     11.05884428	     11.05884428	     20.75999868	      0.52473029	     -5.42415474	    -11.96207802	      4.37025541	      1.85423259	    -23.78883417	    -13.60839102	     -1.96137028	     31.80784236	     46.32863379	      0.00000000	      0.00000000	     28.86675706	    -19.83003785	     -1.38001182	    104.68095154	     48.08985958	      0.00000000	      0.00000000
     22.66785714	     -3.28588275	     -2.55233003	     -0.47404145	      1.07243972	      0.91155035	      0.42979144	     29.05700868	     -2.73992123	    -13.90785728	     16.97904236	     16.97904236	      0.62748356	      1.87058610	      6.18943196	     -6.61983170	     -3.50386389	    -12.14601673	     11.56753183	     11.56753183	     21.42629248	      0.57067051	     -5.14823608	    -11.73767822	      4.42864106	      1.84411677	    -24.12848022	    -13.49261573	     -1.89762511	     31.78374702	     46.31408080	      0.00000000	      0.00000000	     28.60024523	    -19.93205749	     -1.69961216	    105.92693321	     48.15138204	      0.00000000	      0.00000000
     22.67942857	     -3.41912334	     -2.68580109	     -0.43979759	      1.07434247	      0.90978335	      0.43227599	     29.08438223	     -2.42249812	    -13.77574506	     17.96809683	     17.96809683	      0.18308429	      0.99192184	      4.34060732	     -6.81468962	     -3.94397828	    -12.15079379	     12.32318574	     12.32318574	     22.07752853	      0.57404073	     -4.85079273	    -11.51257968	      4.52595929	      1.83871713	    -24.19997232	    -13.34937364	     -1.82760783	     31.63930752	     46.30667848	      0.00000000	      0.00000000	     28.14640979	    -19.97130362	     -2.04673401	    107.10632785	     48.21285272	      0.00000000	      0.00000000
     22.69100000	     -3.38977242	     -2.93212741	     -0.39091249	      1.07643805	      0.90870208	      0.43478674	     28.86531975	     -2.04348309	    -13.75932327	     19.01693474	     19.01693474	      0.17897872	      0.41101031	      3.38951513	     -7.21899240	     -4.48944174	    -12.06371499	     13.00343425	     13.00343425	     22.42852340	      0.33741770	     -4.81283289	    -11.42819945	      4.80222230	      1.96360687	    -24.14377059	    -13.28346768	     -1.78647578	     31.50932609	     46.30688690	      0.00000000	      0.00000000	     27.64014644	    -19.88197256	     -2.16658428	    107.51871077	     48.23300789	      0.00000000	      0.00000000
     22.70257143	     -3.60832385	     -3.08021705	     -0.33309207	      1.07800055	      0.90754072	      0.43743031	     29.09412764	     -1.75871658	    -13.37960107	     20.32018890	     20.32018890	     -0.05606109	     -0.68838271	      1.67584981	     -6.89206123	     -5.05668725	    -11.91230215	     14.49030824	     14.49030824	     22.75221912	      0.00263228	     -4.78618936	    -11.24392034	      4.88963581	      2.03391805	    -23.61670893	    -13.07729322	     -1.68808244	     31.29244045	     46.30807765	      0.00000000	      0.00000000	     26.87235534	    -19.69503173	     -2.53977720	    108.45866459	     48.28574052	      0.00000000	      0.00000000
     22.71414286	     -3.61212074	     -3.33082914	     -0.26577680	      1.07986062	      0.90722364	      0.44010948	     28.71556085	     -1.27566801	    -12.98028923	     20.91089944	     20.91089944	     -1.03464598	     -2.05957056	     -2.42398621	     -6.78210293	     -5.76377925	    -11.93396598	     16.03655054	     16.03655054	     23.03271143	     -0.13156574	     -4.57791566	    -11.24586489	      5.11030747	      1.28913391	    -22.03544004	    -13.17244703	     -1.08972516	     29.99348927	     46.31030394	      0.00000000	      0.00000000	     25.09249453	    -19.79198688	     -4.04903888	    109.90086200	     48.46539413	      0.00000000	      0.00000000
     22.72571429	     -3.67599467	     -3.52318128	     -0.17293906	      1.08129688	      0.90731389	      0.44268061	     28.59609902	     -1.00394134	    -12.84904999	     21.93549950	     21.93549950	     -0.50307969	     -2.50394313	     -2.83960682	     -6.31443059	     -6.39438340	    -11.49161667	     17.99478515	     17.99478515	     22.76077475	     -1.09896485	     -4.98810946	    -11.23096545	      5.27620714	      1.58022576	    -21.29503124	    -13.02889915	     -0.93218642	     30.06449633	     46.29882678	      0.00000000	      0.00000000	     24.31273769	    -19.32909803	     -3.95068841	    109.80044752	     48.46267829	      0.00000000	      0.00000000
     22.73728571	     -3.61859104	     -3.73124782	     -0.06010735	      1.08266150	      0.90808692	      0.44520290	     28.21802830	     -0.70513761	    -12.77749545	     22.70020413	     22.70020413	      0.15162016	     -2.82506187	     -3.11359205	     -5.79389383	     -7.06292689	    -11.01630999	     20.23968395	     20.23968395	     22.20437049	     -2.17069693	     -5.48649715	    -11.39871276	      5.47746274	      1.80927217	    -20.32133316	    -12.99343781	     -0.82070209	     30.19117302	     46.29173954	      0.00000000	      0.00000000	     23.30202002	    -18.82579114	     -3.87459025	    109.54593701	     48.45389017	      0.00000000	      0.00000000
     22.74885714	     -3.80663620	     -3.88715215	      0.07609084	      1.08358610	      0.90900697	      0.44768042	     28.03201210	     -0.45496677	    -12.70668566	     23.26547919	     23.26547919	      1.14631602	     -2.95486205	     -2.22386847	     -4.74239371	     -7.60300927	    -10.06698019	     22.70092559	     22.70092559	     20.17200504	     -4.61671425	     -8.50054546	    -11.29887262	      5.57935833	      1.27679275	    -18.23993420	    -13.02168648	      0.31710374	     29.28360836	     46.24853302	      0.00000000	      0.00000000	     21.47136169	    -18.36424938	     -5.13065173	    109.67118034	     48.58605622	      0.00000000	      0.00000000
     22.76042857	     -3.85008938	     -4.08711273	      0.26532045	      1.08439210	      0.91040828	      0.45018078	     27.49406947	     -0.17486242	    -12.90165071	     23.43521873	     23.43521873	      1.86762282	     -2.82658376	     -2.39089231	     -3.46571230	     -8.33575718	     -9.43310723	     25.93469803	     25.93469803	     19.04031368	     -6.05901852	     -9.04460411	    -11.40730146	      5.73159848	      1.47521330	    -16.92575009	    -12.96123400	      0.46454753	     29.68993822	     46.22960001	      0.00000000	      0.00000000	     20.33825912	    -17.83269019	     -4.86438247	    108.96210849	     48.55631396	      0.00000000	      0.00000000
